<svg width="26" height="24" viewBox="0 0 26 24" fill="none" xmlns="http://www.w3.org/2000/svg">
<path d="M5.33304 2.66785C5.33268 3.37506 5.05141 4.05316 4.55109 4.55298C4.05077 5.05279 3.37239 5.33339 2.66519 5.33304C1.95798 5.33268 1.27988 5.05141 0.780063 4.55109C0.280243 4.05077 -0.000353269 3.37239 3.33797e-07 2.66519C0.000353936 1.95798 0.281629 1.27988 0.781948 0.780063C1.28227 0.280243 1.96065 -0.000353269 2.66785 3.33797e-07C3.37506 0.000353936 4.05316 0.281629 4.55298 0.781948C5.05279 1.28227 5.33339 1.96065 5.33304 2.66785ZM5.41303 7.30759H0.0799958V24H5.41303V7.30759ZM13.8392 7.30759H8.53286V24H13.7859V15.2405C13.7859 10.3608 20.1455 9.90745 20.1455 15.2405V24H25.4119V13.4273C25.4119 5.20104 15.9991 5.50769 13.7859 9.54747L13.8392 7.30759Z" fill="white"/>
</svg>
